<svg id="Logo" xmlns="http://www.w3.org/2000/svg" viewBox="0 0 3600 853.13"><defs><style>.cls-1{fill:#fff;}.cls-2,.cls-3{fill:#37424b;}.cls-3{font-size:540px;font-family:Quam-Bold, Quam;font-weight:700;}.cls-4{letter-spacing:-0.11em;}.cls-5{letter-spacing:-0.03em;}.cls-6{letter-spacing:-0.01em;}.cls-7{letter-spacing:-0.01em;}.cls-8{letter-spacing:-0.01em;}</style></defs><rect id="Background" class="cls-1" x="67.27" y="72.78" width="3465.46" height="707.56" rx="44.15"/><g id="Saucer"><path class="cls-2" d="M254.94,308.69a7.1,7.1,0,1,1,7.15-7.13,7.09,7.09,0,0,1-7.15,7.13Zm0,0"/><path class="cls-2" d="M254.94,308.68a7.1,7.1,0,1,1,7.15-7.13,7.08,7.08,0,0,1-7.15,7.13Zm0,0"/><path class="cls-2" d="M356.14,282.26a7.11,7.11,0,1,1,7.15-7.13,7.12,7.12,0,0,1-7.15,7.13Zm0,0"/><path class="cls-2" d="M356.14,282.27a7.11,7.11,0,1,1,7.15-7.15,7.13,7.13,0,0,1-7.15,7.15Zm0,0"/><path class="cls-2" d="M456.84,272.58a7.1,7.1,0,1,1,7.07-7.08,7.11,7.11,0,0,1-7.07,7.08Zm0,0"/><path class="cls-2" d="M456.84,272.57a7.1,7.1,0,1,1,7.07-7.05,7.08,7.08,0,0,1-7.07,7.05Zm0,0"/><path class="cls-2" d="M560.51,272.58a7.1,7.1,0,1,1,7.13-7.08,7.16,7.16,0,0,1-7.13,7.08Zm0,0"/><path class="cls-2" d="M560.51,272.57a7.1,7.1,0,1,1,7.13-7.05,7.13,7.13,0,0,1-7.13,7.05Zm0,0"/><path class="cls-2" d="M660.16,282.26a7.11,7.11,0,1,1,7.12-7.13,7.12,7.12,0,0,1-7.12,7.13Zm0,0"/><path class="cls-2" d="M660.16,282.27a7.11,7.11,0,1,1,7.12-7.15,7.12,7.12,0,0,1-7.12,7.15Zm0,0"/><path class="cls-2" d="M764.88,306.64a7.1,7.1,0,1,1,7.13-7.07,7.09,7.09,0,0,1-7.13,7.07Zm0,0"/><path class="cls-2" d="M764.88,306.64a7.11,7.11,0,1,1,7.13-7.06,7.09,7.09,0,0,1-7.13,7.06Zm0,0"/><path class="cls-2" d="M645,248.7c-12.93-50.46-68.83-86.64-135-86.64s-122,36.18-135,86.64C277.36,262.05,201,290,201,328.82a17.24,17.24,0,0,0,.22,2.77c4.23,44.52,109.88,74.19,230.58,83.23,1.05-3.87,2.12-7.76,3.17-11.72-110.93-7.63-189.1-31.51-213.62-57.24,29-35.55,147-60.28,288.75-60.28,142,0,260,24.32,289.45,59.43C776,371.08,697.39,395.4,585.17,403.1c1.07,4,2.12,7.85,3.18,11.72,123.24-9.24,230.81-39.92,230.81-86,0-38.86-76.4-66.77-174.13-80.12Zm-135-74.48c58.36,0,108,30,121.89,72.56-22.83-2.75-46.49-4.6-70.8-5.72-4.45-.21-8.9-.36-13.28-.56-3-.07-6-.22-8.92-.29-9.61-.29-19.29-.41-28.89-.41s-19.23.12-28.91.41c-3,.07-5.86.22-8.83.29-4.45.13-8.9.35-13.35.56-24.31,1.12-48,3-70.75,5.65,13.93-42.46,63.53-72.49,121.84-72.49Zm295.38,159.2c-36.81-36.19-152.92-60.07-295.38-60.07-141.91,0-257.72,24.1-294.48,60.65-1.54-2.14-2.39-3.55-2.39-5.18,0-26.41,60.35-54.05,159.14-67.89l-.07.12L380.8,260a1002.68,1002.68,0,0,1,129.26-8,1003.47,1003.47,0,0,1,129.31,8l8.49,1.05v-.12C746.58,274.77,807,302.41,807,328.82a7.65,7.65,0,0,1-1.56,4.6Zm0,0"/><path class="cls-2" d="M645,248.69c-12.93-50.45-68.83-86.63-135-86.63s-122,36.18-135,86.63C277.36,262,201,290,201,328.83a16.91,16.91,0,0,0,.22,2.75c4.23,44.52,109.88,74.21,230.58,83.26,1.05-3.89,2.12-7.78,3.17-11.74-110.93-7.64-189.1-31.52-213.62-57.24,29-35.55,147-60.28,288.75-60.28,142,0,260,24.31,289.45,59.43C776,371.09,697.39,395.39,585.17,403.1c1.07,4,2.12,7.85,3.18,11.74,123.24-9.27,230.81-39.93,230.81-86,0-38.87-76.4-66.79-174.13-80.14Zm-135-74.48c58.36,0,108,30,121.89,72.58-22.83-2.77-46.49-4.59-70.8-5.73-4.45-.22-8.9-.35-13.28-.56-3-.08-6-.22-8.92-.29-9.61-.27-19.29-.42-28.89-.42s-19.23.15-28.91.42c-3,.07-5.86.21-8.83.29-4.45.14-8.9.34-13.35.56-24.31,1.14-48,3-70.75,5.66,13.93-42.48,63.53-72.51,121.84-72.51ZM805.44,333.43c-36.81-36.18-152.92-60.08-295.38-60.08-141.91,0-257.72,24.1-294.48,60.64-1.54-2.12-2.39-3.53-2.39-5.16,0-26.43,60.35-54.05,159.14-67.91l-.07.15L380.8,260a1002.73,1002.73,0,0,1,129.26-8,1003.52,1003.52,0,0,1,129.31,8l8.49,1.07v-.15C746.58,274.78,807,302.4,807,328.83a7.67,7.67,0,0,1-1.56,4.6Zm0,0"/><path class="cls-2" d="M510.06,691.07a346.15,346.15,0,0,1-143.24-30.81L362,658.07l1.41-5.1c7.71-26.77,15.56-53.49,23.47-80.48,20.91-71.23,42.55-144.8,63.82-230.52l1.12-4.66H568.35l1.14,4.66c21.27,85.72,42.89,159.36,63.8,230.59,7.93,27,15.76,53.64,23.47,80.41l1.41,5.1-4.8,2.19a346.71,346.71,0,0,1-143.31,30.81ZM376.64,651.29a336.06,336.06,0,0,0,266.84,0c-7.15-25.09-14.49-50-21.91-75.33-20.57-70-41.84-142.39-62.83-226.42H461.36c-21,84-42.19,156.32-62.74,226.35-7.49,25.29-14.78,50.31-22,75.4Zm0,0"/><path class="cls-2" d="M510.06,691.06a346.15,346.15,0,0,1-143.24-30.81L362,658.07l1.41-5.09c7.71-26.79,15.56-53.49,23.47-80.48C407.79,501.26,429.43,427.7,450.7,342l1.12-4.65H568.35l1.14,4.65c21.27,85.73,42.89,159.36,63.8,230.58,7.93,27,15.76,53.64,23.47,80.43l1.41,5.09-4.8,2.18a346.71,346.71,0,0,1-143.31,30.81ZM376.64,651.28a335.94,335.94,0,0,0,266.84,0c-7.15-25.09-14.49-50-21.91-75.33-20.57-70-41.84-142.39-62.83-226.42H461.36c-21,84-42.19,156.32-62.74,226.35-7.49,25.29-14.78,50.31-22,75.4Zm0,0"/></g><text id="Name" class="cls-3" transform="translate(888.05 605.37)"><tspan class="cls-4">T</tspan><tspan class="cls-5" x="219.24" y="0">r</tspan><tspan x="385.02" y="0">ac</tspan><tspan class="cls-6" x="843.47" y="0">t</tspan><tspan x="1068.11" y="0">o</tspan><tspan class="cls-7" x="1303.54" y="0">r</tspan><tspan x="1476.88" y="0">b</tspan><tspan class="cls-8" x="1713.94" y="0">e</tspan><tspan x="1944.52" y="0">am</tspan></text></svg>