<?xml version="1.0" encoding="UTF-8" standalone="no"?>
<svg
   xmlns:dc="http://purl.org/dc/elements/1.1/"
   xmlns:cc="http://creativecommons.org/ns#"
   xmlns:rdf="http://www.w3.org/1999/02/22-rdf-syntax-ns#"
   xmlns:svg="http://www.w3.org/2000/svg"
   xmlns="http://www.w3.org/2000/svg"
   xmlns:sodipodi="http://sodipodi.sourceforge.net/DTD/sodipodi-0.dtd"
   xmlns:inkscape="http://www.inkscape.org/namespaces/inkscape"
   inkscape:version="1.0 (4035a4f, 2020-05-01)"
   height="707.56"
   width="3465.46"
   sodipodi:docname="tractorbeam-grey-wordmark.svg"
   version="1.1"
   viewBox="0 0 3465.46 707.55999"
   id="Logo">
  <metadata
     id="metadata73">
    <rdf:RDF>
      <cc:Work
         rdf:about="">
        <dc:format>image/svg+xml</dc:format>
        <dc:type
           rdf:resource="http://purl.org/dc/dcmitype/StillImage" />
        <dc:title></dc:title>
      </cc:Work>
    </rdf:RDF>
  </metadata>
  <sodipodi:namedview
     inkscape:current-layer="Logo"
     inkscape:window-maximized="0"
     inkscape:window-y="286"
     inkscape:window-x="825"
     inkscape:cy="353.785"
     inkscape:cx="1732.73"
     inkscape:zoom="0.2925"
     fit-margin-bottom="0"
     fit-margin-right="0"
     fit-margin-left="0"
     fit-margin-top="0"
     showgrid="false"
     id="namedview71"
     inkscape:window-height="635"
     inkscape:window-width="1567"
     inkscape:pageshadow="2"
     inkscape:pageopacity="0"
     guidetolerance="10"
     gridtolerance="10"
     objecttolerance="10"
     borderopacity="1"
     bordercolor="#666666"
     pagecolor="#ffffff" />
  <defs
     id="defs12">
    <style
       id="style10">.cls-1{fill:#fff;}.cls-2{fill:#37424b;}</style>
  </defs>
  <rect
     rx="44.150002"
     height="707.56"
     width="3465.46"
     y="0"
     x="0"
     class="cls-1"
     id="Background" />
  <g
     transform="translate(-67.269997,-72.779999)"
     id="Saucer">
    <path
       id="path15"
       d="m 254.94,308.69 a 7.1,7.1 0 1 1 7.15,-7.13 7.09,7.09 0 0 1 -7.15,7.13 z m 0,0"
       class="cls-2" />
    <path
       id="path17"
       d="m 254.94,308.68 a 7.1,7.1 0 1 1 7.15,-7.13 7.08,7.08 0 0 1 -7.15,7.13 z m 0,0"
       class="cls-2" />
    <path
       id="path19"
       d="m 356.14,282.26 a 7.11,7.11 0 1 1 7.15,-7.13 7.12,7.12 0 0 1 -7.15,7.13 z m 0,0"
       class="cls-2" />
    <path
       id="path21"
       d="m 356.14,282.27 a 7.11,7.11 0 1 1 7.15,-7.15 7.13,7.13 0 0 1 -7.15,7.15 z m 0,0"
       class="cls-2" />
    <path
       id="path23"
       d="m 456.84,272.58 a 7.1,7.1 0 1 1 7.07,-7.08 7.11,7.11 0 0 1 -7.07,7.08 z m 0,0"
       class="cls-2" />
    <path
       id="path25"
       d="m 456.84,272.57 a 7.1,7.1 0 1 1 7.07,-7.05 7.08,7.08 0 0 1 -7.07,7.05 z m 0,0"
       class="cls-2" />
    <path
       id="path27"
       d="m 560.51,272.58 a 7.1,7.1 0 1 1 7.13,-7.08 7.16,7.16 0 0 1 -7.13,7.08 z m 0,0"
       class="cls-2" />
    <path
       id="path29"
       d="m 560.51,272.57 a 7.1,7.1 0 1 1 7.13,-7.05 7.13,7.13 0 0 1 -7.13,7.05 z m 0,0"
       class="cls-2" />
    <path
       id="path31"
       d="m 660.16,282.26 a 7.11,7.11 0 1 1 7.12,-7.13 7.12,7.12 0 0 1 -7.12,7.13 z m 0,0"
       class="cls-2" />
    <path
       id="path33"
       d="m 660.16,282.27 a 7.11,7.11 0 1 1 7.12,-7.15 7.12,7.12 0 0 1 -7.12,7.15 z m 0,0"
       class="cls-2" />
    <path
       id="path35"
       d="m 764.88,306.64 a 7.1,7.1 0 1 1 7.13,-7.07 7.09,7.09 0 0 1 -7.13,7.07 z m 0,0"
       class="cls-2" />
    <path
       id="path37"
       d="m 764.88,306.64 a 7.11,7.11 0 1 1 7.13,-7.06 7.09,7.09 0 0 1 -7.13,7.06 z m 0,0"
       class="cls-2" />
    <path
       id="path39"
       d="m 645,248.7 c -12.93,-50.46 -68.83,-86.64 -135,-86.64 -66.17,0 -122,36.18 -135,86.64 -97.64,13.35 -174,41.3 -174,80.12 a 17.24,17.24 0 0 0 0.22,2.77 c 4.23,44.52 109.88,74.19 230.58,83.23 1.05,-3.87 2.12,-7.76 3.17,-11.72 -110.93,-7.63 -189.1,-31.51 -213.62,-57.24 29,-35.55 147,-60.28 288.75,-60.28 142,0 260,24.32 289.45,59.43 -23.55,26.07 -102.16,50.39 -214.38,58.09 1.07,4 2.12,7.85 3.18,11.72 123.24,-9.24 230.81,-39.92 230.81,-86 0,-38.86 -76.4,-66.77 -174.13,-80.12 z M 510,174.22 c 58.36,0 108,30 121.89,72.56 -22.83,-2.75 -46.49,-4.6 -70.8,-5.72 -4.45,-0.21 -8.9,-0.36 -13.28,-0.56 -3,-0.07 -6,-0.22 -8.92,-0.29 -9.61,-0.29 -19.29,-0.41 -28.89,-0.41 -9.6,0 -19.23,0.12 -28.91,0.41 -3,0.07 -5.86,0.22 -8.83,0.29 -4.45,0.13 -8.9,0.35 -13.35,0.56 -24.31,1.12 -48,3 -70.75,5.65 13.93,-42.46 63.53,-72.49 121.84,-72.49 z m 295.38,159.2 C 768.57,297.23 652.46,273.35 510,273.35 c -141.91,0 -257.72,24.1 -294.48,60.65 -1.54,-2.14 -2.39,-3.55 -2.39,-5.18 0,-26.41 60.35,-54.05 159.14,-67.89 l -0.07,0.12 8.6,-1.05 a 1002.68,1002.68 0 0 1 129.26,-8 1003.47,1003.47 0 0 1 129.31,8 l 8.49,1.05 v -0.12 C 746.58,274.77 807,302.41 807,328.82 a 7.65,7.65 0 0 1 -1.56,4.6 z m 0,0"
       class="cls-2" />
    <path
       id="path41"
       d="m 645,248.69 c -12.93,-50.45 -68.83,-86.63 -135,-86.63 -66.17,0 -122,36.18 -135,86.63 C 277.36,262 201,290 201,328.83 a 16.91,16.91 0 0 0 0.22,2.75 c 4.23,44.52 109.88,74.21 230.58,83.26 1.05,-3.89 2.12,-7.78 3.17,-11.74 -110.93,-7.64 -189.1,-31.52 -213.62,-57.24 29,-35.55 147,-60.28 288.75,-60.28 142,0 260,24.31 289.45,59.43 -23.55,26.08 -102.16,50.38 -214.38,58.09 1.07,4 2.12,7.85 3.18,11.74 123.24,-9.27 230.81,-39.93 230.81,-86 0,-38.87 -76.4,-66.79 -174.13,-80.14 z M 510,174.21 c 58.36,0 108,30 121.89,72.58 -22.83,-2.77 -46.49,-4.59 -70.8,-5.73 -4.45,-0.22 -8.9,-0.35 -13.28,-0.56 -3,-0.08 -6,-0.22 -8.92,-0.29 -9.61,-0.27 -19.29,-0.42 -28.89,-0.42 -9.6,0 -19.23,0.15 -28.91,0.42 -3,0.07 -5.86,0.21 -8.83,0.29 -4.45,0.14 -8.9,0.34 -13.35,0.56 -24.31,1.14 -48,3 -70.75,5.66 13.93,-42.48 63.53,-72.51 121.84,-72.51 z m 295.44,159.22 c -36.81,-36.18 -152.92,-60.08 -295.38,-60.08 -141.91,0 -257.72,24.1 -294.48,60.64 -1.54,-2.12 -2.39,-3.53 -2.39,-5.16 0,-26.43 60.35,-54.05 159.14,-67.91 l -0.07,0.15 8.54,-1.07 a 1002.73,1002.73 0 0 1 129.26,-8 1003.52,1003.52 0 0 1 129.31,8 l 8.49,1.07 v -0.15 C 746.58,274.78 807,302.4 807,328.83 a 7.67,7.67 0 0 1 -1.56,4.6 z m 0,0"
       class="cls-2" />
    <path
       id="path43"
       d="M 510.06,691.07 A 346.15,346.15 0 0 1 366.82,660.26 l -4.82,-2.19 1.41,-5.1 c 7.71,-26.77 15.56,-53.49 23.47,-80.48 20.91,-71.23 42.55,-144.8 63.82,-230.52 l 1.12,-4.66 h 116.53 l 1.14,4.66 c 21.27,85.72 42.89,159.36 63.8,230.59 7.93,27 15.76,53.64 23.47,80.41 l 1.41,5.1 -4.8,2.19 A 346.71,346.71 0 0 1 510.06,691.07 Z M 376.64,651.29 a 336.06,336.06 0 0 0 266.84,0 c -7.15,-25.09 -14.49,-50 -21.91,-75.33 -20.57,-70 -41.84,-142.39 -62.83,-226.42 h -97.38 c -21,84 -42.19,156.32 -62.74,226.35 -7.49,25.29 -14.78,50.31 -22,75.4 z m 0,0"
       class="cls-2" />
    <path
       id="path45"
       d="M 510.06,691.06 A 346.15,346.15 0 0 1 366.82,660.25 l -4.82,-2.18 1.41,-5.09 c 7.71,-26.79 15.56,-53.49 23.47,-80.48 20.91,-71.24 42.55,-144.8 63.82,-230.5 l 1.12,-4.65 h 116.53 l 1.14,4.65 c 21.27,85.73 42.89,159.36 63.8,230.58 7.93,27 15.76,53.64 23.47,80.43 l 1.41,5.09 -4.8,2.18 A 346.71,346.71 0 0 1 510.06,691.09 Z M 376.64,651.28 a 335.94,335.94 0 0 0 266.84,0 c -7.15,-25.09 -14.49,-50 -21.91,-75.33 -20.57,-70 -41.84,-142.39 -62.83,-226.42 h -97.38 c -21,84 -42.19,156.32 -62.74,226.35 -7.49,25.29 -14.78,50.31 -22,75.4 z m 0,0"
       class="cls-2" />
  </g>
  <path
     id="path48"
     d="M 845.08,173.49 H 1087 a 238.82,238.82 0 0 1 -11.88,42.66 H 984.4 V 532.59 H 935.8 V 216.15 H 833.2 a 243.88,243.88 0 0 1 11.88,-42.66 z"
     class="cls-2" />
  <path
     id="path50"
     d="m 1159.36,282.57 a 236.72,236.72 0 0 1 48.6,4.86 215.15,215.15 0 0 1 -11.34,41 280.94,280.94 0 0 0 -37.26,-2.7 163.71,163.71 0 0 0 -20,1.35 153.81,153.81 0 0 0 -17.28,3 l -5.94,1.62 q -4.34,51.31 -4.32,78.3 v 122.59 h -49.09 V 410.01 a 713.59,713.59 0 0 1 8.61,-111.79 247.82,247.82 0 0 1 88.02,-15.65 z"
     class="cls-2" />
  <path
     id="path52"
     d="m 1410.99,298.22 q 8.64,49.69 8.64,111.78 0,63.18 -8.64,111.78 -41,16.2 -87.47,16.2 -47,0 -88,-16.2 -8.64,-26.45 -8.64,-66.42 a 268.19,268.19 0 0 1 2.17,-34.56 q 2.14,-16.72 4.31,-24.3 l 2.16,-8.1 q 41,-16.2 88,-16.2 a 251.39,251.39 0 0 1 45.89,4.32 l -2.7,-44.82 a 166.76,166.76 0 0 0 -43.19,-5.94 314.49,314.49 0 0 0 -93.43,14 q 2.7,-25.36 5.4,-41.58 a 253.68,253.68 0 0 1 175.5,0 z m -87.47,196.56 a 141.87,141.87 0 0 0 21,-1.62 q 10.8,-1.62 16.74,-2.7 l 5.4,-1.62 q 3.24,-39.4 3.78,-67.5 a 185.09,185.09 0 0 0 -47,-5.94 170.2,170.2 0 0 0 -20.25,1.35 153.22,153.22 0 0 0 -17.56,3 l -6.48,1.62 q -3.24,14.06 -3.24,34 c 0,5.77 0.28,11.44 0.81,17 0.53,5.56 1,9.82 1.35,12.69 l 1.08,3.78 a 178.33,178.33 0 0 0 44.37,5.95 z"
     class="cls-2" />
  <path
     id="path54"
     d="m 1557.33,282.57 a 246.43,246.43 0 0 1 87.48,15.65 q 4.32,27 5.4,41.58 a 312.73,312.73 0 0 0 -92.88,-14 163.71,163.71 0 0 0 -20,1.35 153.81,153.81 0 0 0 -17.28,3 l -5.94,1.62 q -4.34,51.31 -4.32,78.3 l 4.32,78.84 q 19.44,6 43.2,5.94 49.68,0 92.88,-15.12 -1.1,15.67 -5.4,42.12 -41,16.2 -87.48,16.2 -47,0 -88,-16.2 a 700,700 0 0 1 -8.64,-111.78 713.59,713.59 0 0 1 8.64,-111.85 247.82,247.82 0 0 1 88.02,-15.65 z"
     class="cls-2" />
  <path
     id="path56"
     d="m 1823.55,494.79 q 28.61,0 64.26,-8.64 a 263.55,263.55 0 0 1 -12.42,46.44 264.51,264.51 0 0 1 -51.84,5.4 q -46.46,0 -87.48,-16.2 -8.65,-48.6 -8.64,-111.78 v -76.68 h -54.54 a 236,236 0 0 1 11.84,-42.66 h 42.66 v -53.45 a 210.69,210.69 0 0 1 48.6,-13 v 66.42 h 94 q -4.34,24.85 -11.88,42.66 h -82.08 v 76.68 l 4.32,78.84 a 170.07,170.07 0 0 0 43.2,5.97 z"
     class="cls-2" />
  <path
     id="path58"
     d="m 2094.09,298.22 q 8.63,49.69 8.64,111.78 0,63.18 -8.64,111.78 -41.06,16.2 -88,16.2 -46.46,0 -87.48,-16.2 -8.65,-48.6 -8.64,-111.78 0,-62.09 8.64,-111.78 a 253.68,253.68 0 0 1 175.5,0 z m -44.82,190.62 q 4.3,-51.28 4.32,-78.84 l -4.32,-78.3 a 166.84,166.84 0 0 0 -43.2,-5.94 163.58,163.58 0 0 0 -20,1.35 153.81,153.81 0 0 0 -17.28,3 l -5.94,1.62 q -3.8,51.31 -3.78,78.3 l 3.78,78.84 a 170.07,170.07 0 0 0 43.2,5.94 135.55,135.55 0 0 0 20,-1.62 q 10.79,-1.62 17.28,-2.7 z"
     class="cls-2" />
  <path
     id="path60"
     d="m 2243.66,282.57 a 236.72,236.72 0 0 1 48.6,4.86 215.15,215.15 0 0 1 -11.34,41 280.94,280.94 0 0 0 -37.26,-2.7 163.84,163.84 0 0 0 -20,1.35 154.22,154.22 0 0 0 -17.28,3 l -5.94,1.62 q -4.33,51.31 -4.32,78.3 v 122.59 h -49.14 V 410.01 a 713.59,713.59 0 0 1 8.66,-111.79 247.82,247.82 0 0 1 88.02,-15.65 z"
     class="cls-2" />
  <path
     id="path62"
     d="m 2504.48,298.22 q 8.63,49.69 8.64,111.78 0,63.18 -8.64,111.78 -41,16.2 -87.48,16.2 -47,0 -88,-16.2 -7.58,-45.89 -8.64,-106.92 V 186.99 a 239.89,239.89 0 0 1 49.14,-13 v 112.9 a 272.19,272.19 0 0 1 47.52,-4.32 246.43,246.43 0 0 1 87.46,15.65 z m -44.28,190.62 q 4.32,-51.28 4.32,-78.84 l -4.32,-78.3 a 166.84,166.84 0 0 0 -43.2,-5.94 231.27,231.27 0 0 0 -47.52,4.86 V 410 l 4.32,78.84 a 165.92,165.92 0 0 0 43.2,5.94 135.44,135.44 0 0 0 20,-1.62 q 10.8,-1.62 17.28,-2.7 z"
     class="cls-2" />
  <path
     id="path64"
     d="m 2739.92,298.22 q 8.63,49.69 8.64,111.78 v 18.36 h -143.1 l 3.78,60.48 q 19.44,6 43.2,5.94 49.66,0 92.88,-15.12 -1.1,15.67 -5.4,42.12 -41.05,16.2 -87.48,16.2 -47,0 -88,-16.2 A 698.89,698.89 0 0 1 2555.8,410 a 712.39,712.39 0 0 1 8.62,-111.78 253.68,253.68 0 0 1 175.5,0 z m -87.48,27.54 a 163.58,163.58 0 0 0 -20,1.35 128.32,128.32 0 0 0 -16.74,3 l -6.48,1.62 q -2.72,28.1 -3.78,54 h 93.42 l -3.24,-54 a 171.09,171.09 0 0 0 -43.18,-5.96 z"
     class="cls-2" />
  <path
     id="path66"
     d="m 2970.5,298.22 q 8.63,49.69 8.64,111.78 0,63.18 -8.64,111.78 -41,16.2 -87.48,16.2 -47,0 -88,-16.2 -8.64,-26.45 -8.64,-66.42 a 270,270 0 0 1 2.16,-34.56 q 2.14,-16.72 4.32,-24.3 l 2.16,-8.1 q 41,-16.2 88,-16.2 a 251.42,251.42 0 0 1 45.9,4.32 l -2.7,-44.82 a 166.84,166.84 0 0 0 -43.2,-5.94 314.42,314.42 0 0 0 -93.42,14 q 2.7,-25.36 5.4,-41.58 a 253.68,253.68 0 0 1 175.5,0 z m -87.48,196.56 a 142.11,142.11 0 0 0 21.06,-1.62 q 10.8,-1.62 16.74,-2.7 l 5.4,-1.62 q 3.24,-39.4 3.78,-67.5 a 185.11,185.11 0 0 0 -47,-5.94 170.2,170.2 0 0 0 -20.25,1.35 153.38,153.38 0 0 0 -17.55,3 l -6.48,1.62 q -3.24,14.06 -3.24,34 0,8.65 0.81,17 0.81,8.35 1.35,12.69 l 1.08,3.78 a 178.19,178.19 0 0 0 44.3,5.95 z"
     class="cls-2" />
  <path
     id="path68"
     d="m 3317.73,298.22 q 8.64,43.74 8.64,111.78 v 122.59 h -49.14 V 410.01 q 0,-17.27 -1.08,-37 -1.08,-19.73 -2.16,-30.51 l -1.08,-10.8 q -26.46,-4.31 -74,-5.94 v 206.83 h -48.6 V 325.77 q -21.06,0.56 -39.42,2.16 -18.36,1.6 -26.46,2.7 l -8.1,1.08 a 718.44,718.44 0 0 0 -4.32,78.3 v 122.58 h -48.6 V 410.01 q 0,-32.93 2.16,-60.75 2.16,-27.82 4.32,-39.15 l 2.16,-11.88 q 49.68,-15.64 142.56,-15.66 a 688,688 0 0 1 76.95,4 q 35.91,4.05 51,7.83 z"
     class="cls-2" />
</svg>
