<svg id="Logo" xmlns="http://www.w3.org/2000/svg" viewBox="0 0 3600 3600"><defs><style>.cls-1,.cls-2,.cls-3,.cls-9{fill:#37424b;}.cls-2{stroke:#222;stroke-width:0.42px;}.cls-3{font-size:540px;font-family:Quam-Bold, Quam;font-weight:700;}.cls-4{letter-spacing:-0.11em;}.cls-5{letter-spacing:-0.03em;}.cls-6{letter-spacing:-0.01em;}.cls-7{letter-spacing:-0.01em;}.cls-8{letter-spacing:-0.01em;}.cls-9{font-size:200px;font-family:OpenSans, Open Sans;}</style></defs><g id="Saucer"><path class="cls-1" d="M930,899a24.22,24.22,0,1,1,24.37-24.31A24.19,24.19,0,0,1,930,899Zm0,0"/><path class="cls-2" d="M930,899a24.22,24.22,0,1,1,24.37-24.31A24.15,24.15,0,0,1,930,899Zm0,0"/><path class="cls-1" d="M1275.08,808.87a24.22,24.22,0,1,1,24.37-24.31,24.29,24.29,0,0,1-24.37,24.31Zm0,0"/><path class="cls-2" d="M1275.08,808.91a24.25,24.25,0,1,1,24.37-24.37,24.31,24.31,0,0,1-24.37,24.37Zm0,0"/><path class="cls-1" d="M1618.49,775.86a24.22,24.22,0,1,1,24.12-24.12,24.24,24.24,0,0,1-24.12,24.12Zm0,0"/><path class="cls-2" d="M1618.49,775.84a24.22,24.22,0,1,1,24.12-24.06,24.19,24.19,0,0,1-24.12,24.06Zm0,0"/><path class="cls-1" d="M1972.07,775.86a24.22,24.22,0,1,1,24.31-24.12,24.41,24.41,0,0,1-24.31,24.12Zm0,0"/><path class="cls-2" d="M1972.07,775.84a24.22,24.22,0,1,1,24.31-24.06,24.36,24.36,0,0,1-24.31,24.06Zm0,0"/><path class="cls-1" d="M2311.9,808.87a24.22,24.22,0,1,1,24.31-24.31,24.24,24.24,0,0,1-24.31,24.31Zm0,0"/><path class="cls-2" d="M2311.9,808.91a24.25,24.25,0,1,1,24.31-24.37,24.25,24.25,0,0,1-24.31,24.37Zm0,0"/><path class="cls-1" d="M2669.06,892a24.22,24.22,0,1,1,24.31-24.13A24.2,24.2,0,0,1,2669.06,892Zm0,0"/><path class="cls-2" d="M2669.06,892A24.22,24.22,0,1,1,2693.37,868,24.19,24.19,0,0,1,2669.06,892Zm0,0"/><path class="cls-1" d="M2260.32,694.42C2216.21,522.35,2025.56,399,1800,399s-416,123.39-460.32,295.46C1006.39,740,745.85,835.15,745.85,967.68a60.05,60.05,0,0,0,.74,9.44C761,1129,1121.33,1230.14,1533,1261c3.57-13.2,7.21-26.46,10.79-40-378.32-26-644.91-107.47-728.51-195.2,99-121.24,501.28-205.58,984.74-205.58,484.14,0,886.65,82.92,987.15,202.68-80.27,88.9-348.28,171.82-731,198.1,3.64,13.52,7.21,26.78,10.85,40,420.28-31.52,787.13-136.16,787.13-293.3,0-132.53-260.54-227.72-593.83-273.26ZM1800,440.42c199,0,368.27,102.41,415.71,247.46-77.86-9.38-158.56-15.67-241.48-19.49-15.18-.74-30.35-1.24-45.28-1.92-10.12-.24-20.3-.74-30.42-1-32.76-1-65.77-1.42-98.53-1.42s-65.58.43-98.59,1.42c-10.12.24-20,.74-30.11,1-15.18.44-30.35,1.18-45.53,1.92-82.92,3.82-163.68,10.11-241.3,19.25C1432,542.83,1601.15,440.42,1800,440.42ZM2807.39,983.35C2681.83,860,2285.86,778.51,1800,778.51c-483.95,0-878.93,82.19-1004.3,206.81-5.25-7.28-8.15-12.09-8.15-17.64,0-90.08,205.82-184.35,542.75-231.55l-.25.43,29.12-3.58c138.33-18.07,286.59-27.27,440.83-27.27s302.68,9.2,441,27.27l28.94,3.58v-.43c336.68,47.2,542.74,141.47,542.74,231.55,0,5.55-1.48,9.93-5.3,15.67Zm0,0"/><path class="cls-2" d="M2260.32,694.4C2216.21,522.33,2025.56,398.94,1800,398.94S1384,522.33,1339.68,694.4c-333.29,45.53-593.83,140.73-593.83,273.32a59.3,59.3,0,0,0,.74,9.38C761,1128.93,1121.33,1230.18,1533,1261c3.57-13.27,7.21-26.53,10.79-40-378.32-26-644.91-107.48-728.51-195.22,99-121.23,501.28-205.57,984.74-205.57,484.14,0,886.65,82.92,987.15,202.68-80.27,89-348.28,171.82-731,198.11,3.64,13.51,7.21,26.77,10.85,40,420.28-31.59,787.13-136.17,787.13-293.31,0-132.59-260.54-227.79-593.83-273.32ZM1800,440.4c199,0,368.27,102.41,415.71,247.52-77.86-9.44-158.56-15.67-241.48-19.55-15.18-.75-30.35-1.18-45.28-1.92-10.12-.24-20.3-.74-30.42-1-32.76-.93-65.77-1.42-98.53-1.42s-65.58.49-98.59,1.42c-10.12.24-20,.74-30.11,1-15.18.5-30.35,1.17-45.53,1.92-82.92,3.88-163.68,10.11-241.3,19.31C1432,542.81,1601.15,440.4,1800,440.4Zm1007.39,543C2681.83,860,2285.86,778.5,1800,778.5c-483.95,0-878.93,82.17-1004.3,206.8-5.25-7.22-8.15-12-8.15-17.58,0-90.14,205.82-184.35,542.75-231.61l-.25.49,29.12-3.64c138.33-18.08,286.59-27.21,440.83-27.21s302.68,9.13,441,27.21L2270,736.6v-.49c336.68,47.26,542.74,141.47,542.74,231.61,0,5.55-1.48,9.87-5.3,15.67Zm0,0"/><path class="cls-1" d="M1800,2203.1A1180.94,1180.94,0,0,1,1311.48,2098l-16.41-7.47,4.82-17.4c26.28-91.31,53-182.43,80-274.48,71.33-242.91,145.12-493.83,217.67-786.15l3.83-15.91h397.39l3.88,15.91c72.56,292.32,146.29,543.49,217.61,786.39,27,92,53.74,182.93,80,274.24l4.81,17.4-16.35,7.47C2134,2167.68,1969.67,2203.1,1800,2203.1Zm-455-135.67a1145.92,1145.92,0,0,0,910,0c-24.38-85.58-49.42-170.66-74.72-256.91-70.15-238.83-142.7-485.62-214.27-772.2H1633.91c-71.57,286.58-143.87,533.12-214,772-25.55,86.25-50.41,171.58-75,257.16Zm0,0"/><path class="cls-2" d="M1800,2203.08A1180.94,1180.94,0,0,1,1311.48,2098l-16.41-7.47,4.82-17.34c26.28-91.37,53-182.43,80-274.48,71.33-243,145.12-493.83,217.67-786.21l3.83-15.86h397.39l3.88,15.86C2075.23,1304.89,2149,1556,2220.28,1798.9c27,92.11,53.74,182.93,80,274.3l4.81,17.34-16.35,7.47C2134,2167.66,1969.67,2203.08,1800,2203.08Zm-455-135.67a1145.92,1145.92,0,0,0,910,0c-24.38-85.58-49.42-170.66-74.72-256.91-70.15-238.83-142.7-485.62-214.27-772.2H1633.91c-71.57,286.58-143.87,533.12-214,772-25.55,86.26-50.41,171.58-75,257.16Zm0,0"/></g><text id="Name" class="cls-3" transform="translate(535.6 2707.87)"><tspan class="cls-4">T</tspan><tspan class="cls-5" x="219.24" y="0">r</tspan><tspan x="385.02" y="0">ac</tspan><tspan class="cls-6" x="843.47" y="0">t</tspan><tspan x="1068.11" y="0">o</tspan><tspan class="cls-7" x="1303.55" y="0">r</tspan><tspan x="1476.88" y="0">b</tspan><tspan class="cls-8" x="1713.94" y="0">e</tspan><tspan x="1944.52" y="0">am</tspan></text><text id="Tag" class="cls-9" transform="translate(747.41 2987.11)">Open source multi-tier <tspan x="279.69" y="200">website backups</tspan></text></svg>